<mxfile host="app.diagrams.net" modified="2021-06-20T08:18:41.716Z" agent="5.0 (Windows NT 10.0; Win64; x64) AppleWebKit/537.36 (KHTML, like Gecko) Chrome/79.0.3945.130 Safari/537.36" etag="_rqAOedtw_xmpHcpIorq" version="14.8.0" type="github">
  <diagram id="BwAdfSWxDpcV_juwySWI" name="Page-1">
    <mxGraphModel dx="813" dy="435" grid="1" gridSize="10" guides="1" tooltips="1" connect="1" arrows="1" fold="1" page="1" pageScale="1" pageWidth="827" pageHeight="1169" math="0" shadow="0">
      <root>
        <mxCell id="0" />
        <mxCell id="1" parent="0" />
        <mxCell id="wQQAjCu7kEyYq-ki2kry-1" value="a" style="rounded=0;whiteSpace=wrap;html=1;" parent="1" vertex="1">
          <mxGeometry x="350" y="30" width="30" height="20" as="geometry" />
        </mxCell>
        <mxCell id="wQQAjCu7kEyYq-ki2kry-3" value="c" style="rounded=0;whiteSpace=wrap;html=1;" parent="1" vertex="1">
          <mxGeometry x="290" y="130" width="30" height="20" as="geometry" />
        </mxCell>
        <mxCell id="wQQAjCu7kEyYq-ki2kry-5" value="b" style="rounded=0;whiteSpace=wrap;html=1;" parent="1" vertex="1">
          <mxGeometry x="390" y="80" width="30" height="20" as="geometry" />
        </mxCell>
        <mxCell id="wQQAjCu7kEyYq-ki2kry-6" value="e" style="rounded=0;whiteSpace=wrap;html=1;" parent="1" vertex="1">
          <mxGeometry x="250" y="170" width="30" height="20" as="geometry" />
        </mxCell>
        <mxCell id="wQQAjCu7kEyYq-ki2kry-7" value="h" style="rounded=0;whiteSpace=wrap;html=1;" parent="1" vertex="1">
          <mxGeometry x="220" y="210" width="30" height="20" as="geometry" />
        </mxCell>
        <mxCell id="wQQAjCu7kEyYq-ki2kry-8" value="i" style="rounded=0;whiteSpace=wrap;html=1;" parent="1" vertex="1">
          <mxGeometry x="290" y="210" width="30" height="20" as="geometry" />
        </mxCell>
        <mxCell id="wQQAjCu7kEyYq-ki2kry-10" value="l" style="rounded=0;whiteSpace=wrap;html=1;" parent="1" vertex="1">
          <mxGeometry x="260" y="260" width="30" height="20" as="geometry" />
        </mxCell>
        <mxCell id="wQQAjCu7kEyYq-ki2kry-11" value="m" style="rounded=0;whiteSpace=wrap;html=1;fillColor=#dae8fc;strokeColor=#6c8ebf;" parent="1" vertex="1">
          <mxGeometry x="320" y="260" width="30" height="20" as="geometry" />
        </mxCell>
        <mxCell id="wQQAjCu7kEyYq-ki2kry-12" value="d" style="rounded=0;whiteSpace=wrap;html=1;" parent="1" vertex="1">
          <mxGeometry x="430" y="120" width="30" height="20" as="geometry" />
        </mxCell>
        <mxCell id="wQQAjCu7kEyYq-ki2kry-21" value="" style="endArrow=classic;html=1;exitX=0.5;exitY=1;exitDx=0;exitDy=0;entryX=0.5;entryY=0;entryDx=0;entryDy=0;" parent="1" source="wQQAjCu7kEyYq-ki2kry-1" target="wQQAjCu7kEyYq-ki2kry-3" edge="1">
          <mxGeometry width="50" height="50" relative="1" as="geometry">
            <mxPoint x="70" y="250" as="sourcePoint" />
            <mxPoint x="120" y="200" as="targetPoint" />
          </mxGeometry>
        </mxCell>
        <mxCell id="wQQAjCu7kEyYq-ki2kry-27" value="" style="endArrow=classic;html=1;exitX=0.5;exitY=1;exitDx=0;exitDy=0;entryX=0.5;entryY=0;entryDx=0;entryDy=0;strokeColor=#FF3333;dashed=1;" parent="1" source="wQQAjCu7kEyYq-ki2kry-1" target="wQQAjCu7kEyYq-ki2kry-5" edge="1">
          <mxGeometry width="50" height="50" relative="1" as="geometry">
            <mxPoint x="70" y="290" as="sourcePoint" />
            <mxPoint x="120" y="240" as="targetPoint" />
          </mxGeometry>
        </mxCell>
        <mxCell id="wQQAjCu7kEyYq-ki2kry-28" value="" style="endArrow=classic;html=1;exitX=0.5;exitY=1;exitDx=0;exitDy=0;entryX=0.5;entryY=0;entryDx=0;entryDy=0;" parent="1" source="wQQAjCu7kEyYq-ki2kry-3" target="wQQAjCu7kEyYq-ki2kry-6" edge="1">
          <mxGeometry width="50" height="50" relative="1" as="geometry">
            <mxPoint x="80" y="370" as="sourcePoint" />
            <mxPoint x="130" y="320" as="targetPoint" />
          </mxGeometry>
        </mxCell>
        <mxCell id="wQQAjCu7kEyYq-ki2kry-29" value="" style="endArrow=classic;html=1;exitX=0.5;exitY=1;exitDx=0;exitDy=0;entryX=0.5;entryY=0;entryDx=0;entryDy=0;" parent="1" source="wQQAjCu7kEyYq-ki2kry-6" target="wQQAjCu7kEyYq-ki2kry-7" edge="1">
          <mxGeometry width="50" height="50" relative="1" as="geometry">
            <mxPoint x="80" y="400" as="sourcePoint" />
            <mxPoint x="130" y="350" as="targetPoint" />
          </mxGeometry>
        </mxCell>
        <mxCell id="wQQAjCu7kEyYq-ki2kry-30" value="" style="endArrow=classic;html=1;exitX=0.5;exitY=1;exitDx=0;exitDy=0;" parent="1" source="wQQAjCu7kEyYq-ki2kry-6" edge="1">
          <mxGeometry width="50" height="50" relative="1" as="geometry">
            <mxPoint x="110" y="420" as="sourcePoint" />
            <mxPoint x="310" y="210" as="targetPoint" />
          </mxGeometry>
        </mxCell>
        <mxCell id="wQQAjCu7kEyYq-ki2kry-31" value="" style="endArrow=classic;html=1;exitX=0.5;exitY=1;exitDx=0;exitDy=0;entryX=0.5;entryY=0;entryDx=0;entryDy=0;" parent="1" source="wQQAjCu7kEyYq-ki2kry-8" target="wQQAjCu7kEyYq-ki2kry-10" edge="1">
          <mxGeometry width="50" height="50" relative="1" as="geometry">
            <mxPoint x="110" y="410" as="sourcePoint" />
            <mxPoint x="160" y="360" as="targetPoint" />
          </mxGeometry>
        </mxCell>
        <mxCell id="wQQAjCu7kEyYq-ki2kry-32" value="" style="endArrow=classic;html=1;exitX=0.5;exitY=1;exitDx=0;exitDy=0;entryX=0.5;entryY=0;entryDx=0;entryDy=0;" parent="1" source="wQQAjCu7kEyYq-ki2kry-8" target="wQQAjCu7kEyYq-ki2kry-11" edge="1">
          <mxGeometry width="50" height="50" relative="1" as="geometry">
            <mxPoint x="190" y="420" as="sourcePoint" />
            <mxPoint x="240" y="370" as="targetPoint" />
          </mxGeometry>
        </mxCell>
        <mxCell id="wQQAjCu7kEyYq-ki2kry-36" value="" style="endArrow=classic;html=1;exitX=0.5;exitY=1;exitDx=0;exitDy=0;entryX=0.5;entryY=0;entryDx=0;entryDy=0;dashed=1;" parent="1" source="wQQAjCu7kEyYq-ki2kry-5" target="wQQAjCu7kEyYq-ki2kry-3" edge="1">
          <mxGeometry width="50" height="50" relative="1" as="geometry">
            <mxPoint x="190" y="390" as="sourcePoint" />
            <mxPoint x="240" y="340" as="targetPoint" />
          </mxGeometry>
        </mxCell>
        <mxCell id="wQQAjCu7kEyYq-ki2kry-55" value="1" style="text;html=1;strokeColor=none;fillColor=none;align=center;verticalAlign=middle;whiteSpace=wrap;rounded=0;" parent="1" vertex="1">
          <mxGeometry x="300" y="190" width="40" height="20" as="geometry" />
        </mxCell>
        <mxCell id="wQQAjCu7kEyYq-ki2kry-57" value="2" style="text;html=1;strokeColor=none;fillColor=none;align=center;verticalAlign=middle;whiteSpace=wrap;rounded=0;" parent="1" vertex="1">
          <mxGeometry x="220" y="160" width="40" height="20" as="geometry" />
        </mxCell>
        <mxCell id="wQQAjCu7kEyYq-ki2kry-58" value="3" style="text;html=1;strokeColor=none;fillColor=none;align=center;verticalAlign=middle;whiteSpace=wrap;rounded=0;" parent="1" vertex="1">
          <mxGeometry x="260" y="120" width="40" height="20" as="geometry" />
        </mxCell>
        <mxCell id="wQQAjCu7kEyYq-ki2kry-63" value="12/7" style="text;html=1;strokeColor=none;fillColor=none;align=center;verticalAlign=middle;whiteSpace=wrap;rounded=0;" parent="1" vertex="1">
          <mxGeometry x="420" y="60" width="30" height="20" as="geometry" />
        </mxCell>
        <mxCell id="wQQAjCu7kEyYq-ki2kry-64" value="2" style="text;html=1;strokeColor=none;fillColor=none;align=center;verticalAlign=middle;whiteSpace=wrap;rounded=0;" parent="1" vertex="1">
          <mxGeometry x="320" y="20" width="30" height="20" as="geometry" />
        </mxCell>
        <mxCell id="wQQAjCu7kEyYq-ki2kry-84" value="k" style="rounded=0;whiteSpace=wrap;html=1;" parent="1" vertex="1">
          <mxGeometry x="400" y="230" width="30" height="20" as="geometry" />
        </mxCell>
        <mxCell id="wQQAjCu7kEyYq-ki2kry-86" style="edgeStyle=orthogonalEdgeStyle;rounded=0;orthogonalLoop=1;jettySize=auto;html=1;exitX=0.5;exitY=1;exitDx=0;exitDy=0;" parent="1" source="wQQAjCu7kEyYq-ki2kry-12" target="wQQAjCu7kEyYq-ki2kry-12" edge="1">
          <mxGeometry relative="1" as="geometry" />
        </mxCell>
        <mxCell id="wQQAjCu7kEyYq-ki2kry-87" value="f" style="rounded=0;whiteSpace=wrap;html=1;" parent="1" vertex="1">
          <mxGeometry x="470" y="160" width="30" height="20" as="geometry" />
        </mxCell>
        <mxCell id="wQQAjCu7kEyYq-ki2kry-88" value="g" style="rounded=0;whiteSpace=wrap;html=1;" parent="1" vertex="1">
          <mxGeometry x="500" y="190" width="30" height="20" as="geometry" />
        </mxCell>
        <mxCell id="wQQAjCu7kEyYq-ki2kry-89" value="j" style="rounded=0;whiteSpace=wrap;html=1;" parent="1" vertex="1">
          <mxGeometry x="475" y="240" width="30" height="20" as="geometry" />
        </mxCell>
        <mxCell id="wQQAjCu7kEyYq-ki2kry-90" value="n" style="rounded=0;whiteSpace=wrap;html=1;" parent="1" vertex="1">
          <mxGeometry x="485" y="290" width="30" height="20" as="geometry" />
        </mxCell>
        <mxCell id="wQQAjCu7kEyYq-ki2kry-92" value="o" style="rounded=0;whiteSpace=wrap;html=1;" parent="1" vertex="1">
          <mxGeometry x="370" y="290" width="30" height="20" as="geometry" />
        </mxCell>
        <mxCell id="wQQAjCu7kEyYq-ki2kry-93" value="p" style="rounded=0;whiteSpace=wrap;html=1;fillColor=#dae8fc;strokeColor=#6c8ebf;" parent="1" vertex="1">
          <mxGeometry x="430" y="290" width="30" height="20" as="geometry" />
        </mxCell>
        <mxCell id="wQQAjCu7kEyYq-ki2kry-94" value="" style="endArrow=classic;html=1;exitX=0.5;exitY=1;exitDx=0;exitDy=0;entryX=0.667;entryY=0;entryDx=0;entryDy=0;entryPerimeter=0;strokeColor=#FF3333;dashed=1;" parent="1" source="wQQAjCu7kEyYq-ki2kry-5" target="wQQAjCu7kEyYq-ki2kry-12" edge="1">
          <mxGeometry width="50" height="50" relative="1" as="geometry">
            <mxPoint x="20" y="450" as="sourcePoint" />
            <mxPoint x="70" y="400" as="targetPoint" />
          </mxGeometry>
        </mxCell>
        <mxCell id="wQQAjCu7kEyYq-ki2kry-95" value="" style="endArrow=classic;html=1;exitX=0.5;exitY=1;exitDx=0;exitDy=0;entryX=0.5;entryY=0;entryDx=0;entryDy=0;strokeColor=#FF3333;" parent="1" source="wQQAjCu7kEyYq-ki2kry-12" target="wQQAjCu7kEyYq-ki2kry-84" edge="1">
          <mxGeometry width="50" height="50" relative="1" as="geometry">
            <mxPoint x="180" y="470" as="sourcePoint" />
            <mxPoint x="230" y="420" as="targetPoint" />
          </mxGeometry>
        </mxCell>
        <mxCell id="wQQAjCu7kEyYq-ki2kry-98" value="" style="endArrow=classic;html=1;exitX=0.5;exitY=1;exitDx=0;exitDy=0;entryX=0.5;entryY=0;entryDx=0;entryDy=0;" parent="1" source="wQQAjCu7kEyYq-ki2kry-12" target="wQQAjCu7kEyYq-ki2kry-87" edge="1">
          <mxGeometry width="50" height="50" relative="1" as="geometry">
            <mxPoint x="170" y="390" as="sourcePoint" />
            <mxPoint x="220" y="340" as="targetPoint" />
          </mxGeometry>
        </mxCell>
        <mxCell id="wQQAjCu7kEyYq-ki2kry-99" value="" style="endArrow=classic;html=1;exitX=0.5;exitY=1;exitDx=0;exitDy=0;entryX=0.5;entryY=0;entryDx=0;entryDy=0;" parent="1" source="wQQAjCu7kEyYq-ki2kry-87" target="wQQAjCu7kEyYq-ki2kry-88" edge="1">
          <mxGeometry width="50" height="50" relative="1" as="geometry">
            <mxPoint x="260" y="440" as="sourcePoint" />
            <mxPoint x="310" y="390" as="targetPoint" />
          </mxGeometry>
        </mxCell>
        <mxCell id="wQQAjCu7kEyYq-ki2kry-100" value="" style="endArrow=classic;html=1;exitX=0.5;exitY=1;exitDx=0;exitDy=0;entryX=0.5;entryY=0;entryDx=0;entryDy=0;" parent="1" source="wQQAjCu7kEyYq-ki2kry-88" target="wQQAjCu7kEyYq-ki2kry-89" edge="1">
          <mxGeometry width="50" height="50" relative="1" as="geometry">
            <mxPoint x="310" y="410" as="sourcePoint" />
            <mxPoint x="360" y="360" as="targetPoint" />
          </mxGeometry>
        </mxCell>
        <mxCell id="wQQAjCu7kEyYq-ki2kry-103" value="" style="endArrow=classic;html=1;exitX=0.5;exitY=1;exitDx=0;exitDy=0;entryX=0.5;entryY=0;entryDx=0;entryDy=0;" parent="1" source="wQQAjCu7kEyYq-ki2kry-89" target="wQQAjCu7kEyYq-ki2kry-90" edge="1">
          <mxGeometry width="50" height="50" relative="1" as="geometry">
            <mxPoint x="90" y="440" as="sourcePoint" />
            <mxPoint x="140" y="390" as="targetPoint" />
          </mxGeometry>
        </mxCell>
        <mxCell id="wQQAjCu7kEyYq-ki2kry-104" value="" style="endArrow=classic;html=1;exitX=0;exitY=0.5;exitDx=0;exitDy=0;entryX=1;entryY=0.5;entryDx=0;entryDy=0;" parent="1" source="wQQAjCu7kEyYq-ki2kry-89" target="wQQAjCu7kEyYq-ki2kry-84" edge="1">
          <mxGeometry width="50" height="50" relative="1" as="geometry">
            <mxPoint x="150" y="390" as="sourcePoint" />
            <mxPoint x="406" y="210" as="targetPoint" />
          </mxGeometry>
        </mxCell>
        <mxCell id="wQQAjCu7kEyYq-ki2kry-111" value="" style="endArrow=classic;html=1;exitX=0.5;exitY=1;exitDx=0;exitDy=0;entryX=0.5;entryY=0;entryDx=0;entryDy=0;strokeColor=#FF3333;" parent="1" source="wQQAjCu7kEyYq-ki2kry-84" target="wQQAjCu7kEyYq-ki2kry-92" edge="1">
          <mxGeometry width="50" height="50" relative="1" as="geometry">
            <mxPoint x="390" y="420" as="sourcePoint" />
            <mxPoint x="440" y="370" as="targetPoint" />
          </mxGeometry>
        </mxCell>
        <mxCell id="wQQAjCu7kEyYq-ki2kry-112" value="" style="endArrow=classic;html=1;exitX=0.5;exitY=1;exitDx=0;exitDy=0;entryX=0.5;entryY=0;entryDx=0;entryDy=0;" parent="1" source="wQQAjCu7kEyYq-ki2kry-84" target="wQQAjCu7kEyYq-ki2kry-93" edge="1">
          <mxGeometry width="50" height="50" relative="1" as="geometry">
            <mxPoint x="350" y="470" as="sourcePoint" />
            <mxPoint x="400" y="420" as="targetPoint" />
          </mxGeometry>
        </mxCell>
        <mxCell id="wQQAjCu7kEyYq-ki2kry-113" value="1" style="text;html=1;strokeColor=none;fillColor=none;align=center;verticalAlign=middle;whiteSpace=wrap;rounded=0;" parent="1" vertex="1">
          <mxGeometry x="370" y="220" width="40" height="20" as="geometry" />
        </mxCell>
        <mxCell id="wQQAjCu7kEyYq-ki2kry-114" value="2" style="text;html=1;strokeColor=none;fillColor=none;align=center;verticalAlign=middle;whiteSpace=wrap;rounded=0;" parent="1" vertex="1">
          <mxGeometry x="495" y="230" width="40" height="20" as="geometry" />
        </mxCell>
        <mxCell id="wQQAjCu7kEyYq-ki2kry-115" value="2" style="text;html=1;strokeColor=none;fillColor=none;align=center;verticalAlign=middle;whiteSpace=wrap;rounded=0;" parent="1" vertex="1">
          <mxGeometry x="450" y="110" width="40" height="20" as="geometry" />
        </mxCell>
        <mxCell id="wQQAjCu7kEyYq-ki2kry-116" value="3" style="text;html=1;strokeColor=none;fillColor=none;align=center;verticalAlign=middle;whiteSpace=wrap;rounded=0;" parent="1" vertex="1">
          <mxGeometry x="520" y="180" width="40" height="20" as="geometry" />
        </mxCell>
        <mxCell id="wQQAjCu7kEyYq-ki2kry-117" value="4" style="text;html=1;strokeColor=none;fillColor=none;align=center;verticalAlign=middle;whiteSpace=wrap;rounded=0;" parent="1" vertex="1">
          <mxGeometry x="485" y="140" width="40" height="20" as="geometry" />
        </mxCell>
      </root>
    </mxGraphModel>
  </diagram>
</mxfile>
